{
    "asset" : {
        "generator" : "Khronos glTF Blender I/O v3.4.50",
        "version" : "2.0"
    },
    "scene" : 0,
    "scenes" : [
        {
            "name" : "Scene",
            "nodes" : [
                0
            ]
        }
    ],
    "nodes" : [
        {
            "mesh" : 0,
            "name" : "Head",
            "translation" : [
                1.018424153327942,
                0.884725034236908,
                -1.202814655698603e-05
            ]
        }
    ],
    "materials" : [
        {
            "doubleSided" : true,
            "name" : "MATCranio",
            "normalTexture" : {
                "index" : 0
            },
            "pbrMetallicRoughness" : {
                "baseColorTexture" : {
                    "index" : 1
                },
                "metallicFactor" : 0,
                "roughnessFactor" : 0.5
            }
        }
    ],
    "meshes" : [
        {
            "name" : "Cube.001",
            "primitives" : [
                {
                    "attributes" : {
                        "POSITION" : 0,
                        "TEXCOORD_0" : 1,
                        "NORMAL" : 2
                    },
                    "indices" : 3,
                    "material" : 0
                }
            ]
        }
    ],
    "textures" : [
        {
            "sampler" : 0,
            "source" : 0
        },
        {
            "sampler" : 0,
            "source" : 1
        }
    ],
    "images" : [
        {
            "bufferView" : 4,
            "mimeType" : "image/png",
            "name" : "CrowHeadNormal"
        },
        {
            "bufferView" : 5,
            "mimeType" : "image/png",
            "name" : "CrowHead"
        }
    ],
    "accessors" : [
        {
            "bufferView" : 0,
            "componentType" : 5126,
            "count" : 2749,
            "max" : [
                3.5445728302001953,
                1.9517767429351807,
                1.7918446063995361
            ],
            "min" : [
                -3.435739517211914,
                -1.4601564407348633,
                -1.7918205261230469
            ],
            "type" : "VEC3"
        },
        {
            "bufferView" : 1,
            "componentType" : 5126,
            "count" : 2749,
            "type" : "VEC2"
        },
        {
            "bufferView" : 2,
            "componentType" : 5126,
            "count" : 2749,
            "type" : "VEC3"
        },
        {
            "bufferView" : 3,
            "componentType" : 5123,
            "count" : 15120,
            "type" : "SCALAR"
        }
    ],
    "bufferViews" : [
        {
            "buffer" : 0,
            "byteLength" : 32988,
            "byteOffset" : 0,
            "target" : 34962
        },
        {
            "buffer" : 0,
            "byteLength" : 21992,
            "byteOffset" : 32988,
            "target" : 34962
        },
        {
            "buffer" : 0,
            "byteLength" : 32988,
            "byteOffset" : 54980,
            "target" : 34962
        },
        {
            "buffer" : 0,
            "byteLength" : 30240,
            "byteOffset" : 87968,
            "target" : 34963
        },
        {
            "buffer" : 0,
            "byteLength" : 17492,
            "byteOffset" : 118208
        },
        {
            "buffer" : 0,
            "byteLength" : 1262612,
            "byteOffset" : 135700
        }
    ],
    "samplers" : [
        {
            "magFilter" : 9729,
            "minFilter" : 9987
        }
    ],
    "buffers" : [
        {
            "byteLength" : 1398312,
            "uri" : "data:application/octet-stream;base64,"
        }
    ]
}
