{
    "asset" : {
        "generator" : "Khronos glTF Blender I/O v1.7.33",
        "version" : "2.0"
    },
    "scene" : 0,
    "scenes" : [
        {
            "name" : "Scene",
            "nodes" : [
                0
            ]
        }
    ],
    "nodes" : [
        {
            "mesh" : 0,
            "name" : "Plane.001"
        }
    ],
    "materials" : [
        {
            "doubleSided" : true,
            "name" : "Vase",
            "normalTexture" : {
                "index" : 0,
                "scale" : 2
            },
            "pbrMetallicRoughness" : {
                "baseColorTexture" : {
                    "index" : 1
                },
                "metallicRoughnessTexture" : {
                    "index" : 2
                }
            }
        }
    ],
    "meshes" : [
        {
            "name" : "Plane.002",
            "primitives" : [
                {
                    "attributes" : {
                        "POSITION" : 0,
                        "NORMAL" : 1,
                        "TEXCOORD_0" : 2
                    },
                    "indices" : 3,
                    "material" : 0
                }
            ]
        }
    ],
    "textures" : [
        {
            "sampler" : 0,
            "source" : 0
        },
        {
            "sampler" : 0,
            "source" : 1
        },
        {
            "sampler" : 0,
            "source" : 2
        }
    ],
    "images" : [
        {
            "bufferView" : 4,
            "mimeType" : "image/png",
            "name" : "Normals"
        },
        {
            "bufferView" : 5,
            "mimeType" : "image/png",
            "name" : "Cooper_Albedo_new"
        },
        {
            "bufferView" : 6,
            "mimeType" : "image/png",
            "name" : "Cooper_Escoved_Rough"
        }
    ],
    "accessors" : [
        {
            "bufferView" : 0,
            "componentType" : 5126,
            "count" : 273,
            "max" : [
                0.7740941643714905,
                1.2527389526367188,
                0.7740942239761353
            ],
            "min" : [
                -0.7740942239761353,
                -0.24535682797431946,
                -0.7670660018920898
            ],
            "type" : "VEC3"
        },
        {
            "bufferView" : 1,
            "componentType" : 5126,
            "count" : 273,
            "type" : "VEC3"
        },
        {
            "bufferView" : 2,
            "componentType" : 5126,
            "count" : 273,
            "type" : "VEC2"
        },
        {
            "bufferView" : 3,
            "componentType" : 5123,
            "count" : 1377,
            "type" : "SCALAR"
        }
    ],
    "bufferViews" : [
        {
            "buffer" : 0,
            "byteLength" : 3276,
            "byteOffset" : 0
        },
        {
            "buffer" : 0,
            "byteLength" : 3276,
            "byteOffset" : 3276
        },
        {
            "buffer" : 0,
            "byteLength" : 2184,
            "byteOffset" : 6552
        },
        {
            "buffer" : 0,
            "byteLength" : 2754,
            "byteOffset" : 8736
        },
        {
            "buffer" : 0,
            "byteLength" : 1197003,
            "byteOffset" : 11492
        },
        {
            "buffer" : 0,
            "byteLength" : 503951,
            "byteOffset" : 1208496
        },
        {
            "buffer" : 0,
            "byteLength" : 326368,
            "byteOffset" : 1712448
        }
    ],
    "samplers" : [
        {
            "magFilter" : 9729,
            "minFilter" : 9987
        }
    ],
    "buffers" : [
        {
            "byteLength" : 2038816,
            "uri" : "data:application/octet-stream;base64,"
        }
    ]
}
